# xmcd CD database file
#
# Track frame offsets:
#	150
#	16057
#	40352
#
# Disc length: 897 seconds
#
# Revision: 1
# Processed by: cddbd v1.5.2PL0 Copyright (c) Steve Scherf et al.
# Submitted via: CDex 1.70beta2
#
DISCID=19037f03
DTITLE=D≒SIRE - STAY
DYEAR=1998
DGENRE=Rock
TTITLE0=STAY
TTITLE1=Missing
TTITLE2=静夢 (LAST VERSION)
EXTD=YEAR: 1998
EXTT0=
EXTT1=
EXTT2=
PLAYORDER=
